<svg xmlns="http://www.w3.org/2000/svg" xmlns:xlink="http://www.w3.org/1999/xlink" viewBox="430 202 640 640" version="1.0"><defs><clipPath id="b4e0a7af44"><path d="M 542.183594 222.125 L 750 222.125 L 750 703 L 542.183594 703 Z M 542.183594 222.125 " clip-rule="nonzero"/></clipPath><clipPath id="09680330dd"><path d="M 749 342 L 957.683594 342 L 957.683594 822.125 L 749 822.125 Z M 749 342 " clip-rule="nonzero"/></clipPath></defs><g clip-path="url(#b4e0a7af44)"><path fill="#004aad" d="M 749.996094 222.246094 L 749.996094 342.226562 L 646.089844 402.214844 L 646.089844 522.195312 L 749.996094 582.1875 L 749.996094 702.164062 L 542.183594 582.1875 L 542.183594 342.226562 Z M 749.996094 222.246094 " fill-opacity="1" fill-rule="evenodd"/></g><g clip-path="url(#09680330dd)"><path fill="#ff751f" d="M 749.996094 462.207031 L 853.902344 522.195312 L 853.902344 642.175781 L 749.996094 702.164062 L 749.996094 822.144531 L 957.8125 702.164062 L 957.8125 462.207031 L 749.996094 342.226562 Z M 749.996094 462.207031 " fill-opacity="1" fill-rule="evenodd"/></g><path fill="#ff751f" d="M 814.933594 259.742188 L 814.933594 349.726562 L 892.871094 394.71875 L 892.871094 304.734375 Z M 814.933594 259.742188 " fill-opacity="1" fill-rule="evenodd"/></svg>
