<svg xmlns="http://www.w3.org/2000/svg" xmlns:xlink="http://www.w3.org/1999/xlink" width="2000" zoomAndPan="magnify" viewBox="0 0 1500 1499.999933" height="2000" preserveAspectRatio="xMidYMid meet" version="1.0"><defs><g/><clipPath id="b4e0a7af44"><path d="M 542.183594 222.125 L 750 222.125 L 750 703 L 542.183594 703 Z M 542.183594 222.125 " clip-rule="nonzero"/></clipPath><clipPath id="09680330dd"><path d="M 749 342 L 957.683594 342 L 957.683594 822.125 L 749 822.125 Z M 749 342 " clip-rule="nonzero"/></clipPath></defs><g clip-path="url(#b4e0a7af44)"><path fill="#004aad" d="M 749.996094 222.246094 L 749.996094 342.226562 L 646.089844 402.214844 L 646.089844 522.195312 L 749.996094 582.1875 L 749.996094 702.164062 L 542.183594 582.1875 L 542.183594 342.226562 Z M 749.996094 222.246094 " fill-opacity="1" fill-rule="evenodd"/></g><g clip-path="url(#09680330dd)"><path fill="#ff751f" d="M 749.996094 462.207031 L 853.902344 522.195312 L 853.902344 642.175781 L 749.996094 702.164062 L 749.996094 822.144531 L 957.8125 702.164062 L 957.8125 462.207031 L 749.996094 342.226562 Z M 749.996094 462.207031 " fill-opacity="1" fill-rule="evenodd"/></g><path fill="#ff751f" d="M 814.933594 259.742188 L 814.933594 349.726562 L 892.871094 394.71875 L 892.871094 304.734375 Z M 814.933594 259.742188 " fill-opacity="1" fill-rule="evenodd"/><g fill="#004aad" fill-opacity="1"><g transform="translate(223.091573, 1001.388302)"><g><path d="M 71.546875 1.921875 C 59.410156 1.921875 48.535156 -0.851562 38.921875 -6.40625 C 29.316406 -11.957031 21.753906 -19.945312 16.234375 -30.375 C 10.710938 -40.800781 7.953125 -53.363281 7.953125 -68.0625 C 7.953125 -82.820312 10.726562 -95.429688 16.28125 -105.890625 C 21.832031 -116.359375 29.425781 -124.367188 39.0625 -129.921875 C 48.695312 -135.472656 59.523438 -138.25 71.546875 -138.25 C 79.347656 -138.25 86.617188 -137.148438 93.359375 -134.953125 C 100.109375 -132.753906 106.070312 -129.550781 111.25 -125.34375 C 116.4375 -121.132812 120.691406 -116.007812 124.015625 -109.96875 C 127.335938 -103.9375 129.519531 -97.078125 130.5625 -89.390625 L 102.28125 -89.390625 C 101.613281 -93.171875 100.394531 -96.554688 98.625 -99.546875 C 96.851562 -102.535156 94.65625 -105.066406 92.03125 -107.140625 C 89.414062 -109.210938 86.429688 -110.78125 83.078125 -111.84375 C 79.722656 -112.914062 76.0625 -113.453125 72.09375 -113.453125 C 64.894531 -113.453125 58.597656 -111.648438 53.203125 -108.046875 C 47.804688 -104.453125 43.644531 -99.285156 40.71875 -92.546875 C 37.789062 -85.804688 36.328125 -77.644531 36.328125 -68.0625 C 36.328125 -58.363281 37.804688 -50.144531 40.765625 -43.40625 C 43.722656 -36.664062 47.882812 -31.554688 53.25 -28.078125 C 58.613281 -24.609375 64.894531 -22.875 72.09375 -22.875 C 76 -22.875 79.628906 -23.421875 82.984375 -24.515625 C 86.335938 -25.617188 89.335938 -27.191406 91.984375 -29.234375 C 94.640625 -31.273438 96.851562 -33.789062 98.625 -36.78125 C 100.394531 -39.769531 101.644531 -43.15625 102.375 -46.9375 L 130.65625 -46.9375 C 129.800781 -40.289062 127.832031 -34.035156 124.75 -28.171875 C 121.664062 -22.316406 117.578125 -17.117188 112.484375 -12.578125 C 107.390625 -8.035156 101.410156 -4.484375 94.546875 -1.921875 C 87.691406 0.636719 80.023438 1.921875 71.546875 1.921875 Z M 71.546875 1.921875 "/></g></g></g><g fill="#004aad" fill-opacity="1"><g transform="translate(357.401996, 1001.388302)"><g><path d="M 71.734375 1.921875 C 59.648438 1.921875 48.789062 -0.851562 39.15625 -6.40625 C 29.519531 -11.957031 21.910156 -19.945312 16.328125 -30.375 C 10.742188 -40.800781 7.953125 -53.363281 7.953125 -68.0625 C 7.953125 -82.820312 10.742188 -95.429688 16.328125 -105.890625 C 21.910156 -116.359375 29.519531 -124.367188 39.15625 -129.921875 C 48.789062 -135.472656 59.648438 -138.25 71.734375 -138.25 C 83.804688 -138.25 94.644531 -135.472656 104.25 -129.921875 C 113.863281 -124.367188 121.457031 -116.359375 127.03125 -105.890625 C 132.613281 -95.429688 135.40625 -82.820312 135.40625 -68.0625 C 135.40625 -53.363281 132.613281 -40.785156 127.03125 -30.328125 C 121.457031 -19.867188 113.863281 -11.878906 104.25 -6.359375 C 94.644531 -0.835938 83.804688 1.921875 71.734375 1.921875 Z M 71.734375 -22.875 C 78.804688 -22.875 84.992188 -24.609375 90.296875 -28.078125 C 95.609375 -31.554688 99.742188 -36.664062 102.703125 -43.40625 C 105.660156 -50.144531 107.140625 -58.363281 107.140625 -68.0625 C 107.140625 -77.820312 105.660156 -86.085938 102.703125 -92.859375 C 99.742188 -99.628906 95.609375 -104.753906 90.296875 -108.234375 C 84.992188 -111.710938 78.804688 -113.453125 71.734375 -113.453125 C 64.710938 -113.453125 58.535156 -111.695312 53.203125 -108.1875 C 47.867188 -104.675781 43.722656 -99.550781 40.765625 -92.8125 C 37.804688 -86.070312 36.328125 -77.820312 36.328125 -68.0625 C 36.328125 -58.363281 37.804688 -50.160156 40.765625 -43.453125 C 43.722656 -36.742188 47.867188 -31.632812 53.203125 -28.125 C 58.535156 -24.625 64.710938 -22.875 71.734375 -22.875 Z M 71.734375 -22.875 "/></g></g></g><g fill="#004aad" fill-opacity="1"><g transform="translate(497.018841, 1001.388302)"><g><path d="M 59.828125 0 L 24.515625 0 L 24.515625 -23.96875 L 58.46875 -23.96875 C 67.3125 -23.96875 74.707031 -25.550781 80.65625 -28.71875 C 86.601562 -31.894531 91.066406 -36.757812 94.046875 -43.3125 C 97.035156 -49.875 98.53125 -58.1875 98.53125 -68.25 C 98.53125 -78.25 97.035156 -86.515625 94.046875 -93.046875 C 91.066406 -99.578125 86.617188 -104.425781 80.703125 -107.59375 C 74.785156 -110.769531 67.429688 -112.359375 58.640625 -112.359375 L 23.875 -112.359375 L 23.875 -136.328125 L 60.296875 -136.328125 C 74.015625 -136.328125 85.800781 -133.597656 95.65625 -128.140625 C 105.507812 -122.679688 113.101562 -114.859375 118.4375 -104.671875 C 123.769531 -94.484375 126.4375 -82.34375 126.4375 -68.25 C 126.4375 -54.101562 123.78125 -41.9375 118.46875 -31.75 C 113.164062 -21.5625 105.53125 -13.722656 95.5625 -8.234375 C 85.59375 -2.742188 73.679688 0 59.828125 0 Z M 39.796875 -136.328125 L 39.796875 0 L 11.796875 0 L 11.796875 -136.328125 Z M 39.796875 -136.328125 "/></g></g></g><g fill="#004aad" fill-opacity="1"><g transform="translate(627.669663, 1001.388302)"><g><path d="M 11.796875 0 L 11.796875 -136.328125 L 104.578125 -136.328125 L 104.578125 -112.90625 L 39.796875 -112.90625 L 39.796875 -80.328125 L 99.640625 -80.328125 L 99.640625 -57.359375 L 39.796875 -57.359375 L 39.796875 -23.421875 L 104.671875 -23.421875 L 104.671875 0 Z M 11.796875 0 "/></g></g></g><g fill="#004aad" fill-opacity="1"><g transform="translate(737.743876, 1001.388302)"><g/></g></g><g fill="#ff751f" fill-opacity="1"><g transform="translate(771.317542, 1001.388302)"><g><path d="M 11.796875 0 L 11.796875 -136.328125 L 39.796875 -136.328125 L 39.796875 -81.34375 L 98.90625 -81.34375 L 98.90625 -136.328125 L 126.90625 -136.328125 L 126.90625 0 L 98.90625 0 L 98.90625 -57.921875 L 39.796875 -57.921875 L 39.796875 0 Z M 11.796875 0 "/></g></g></g><g fill="#ff751f" fill-opacity="1"><g transform="translate(906.26839, 1001.388302)"><g><path d="M 3.65625 0 L 50.59375 -136.328125 L 87.015625 -136.328125 L 134.859375 0 L 103.75 0 L 81.984375 -65.875 C 79.359375 -74.414062 76.6875 -83.640625 73.96875 -93.546875 C 71.257812 -103.460938 68.378906 -114.367188 65.328125 -126.265625 L 71.734375 -126.265625 C 68.742188 -114.367188 65.96875 -103.429688 63.40625 -93.453125 C 60.84375 -83.484375 58.28125 -74.289062 55.71875 -65.875 L 34.40625 0 Z M 33.03125 -31.203125 L 33.03125 -53.25 L 105.484375 -53.25 L 105.484375 -31.203125 Z M 33.03125 -31.203125 "/></g></g></g><g fill="#ff751f" fill-opacity="1"><g transform="translate(1036.370054, 1001.388302)"><g><path d="M 67.984375 1.921875 C 56.691406 1.921875 46.835938 -0.148438 38.421875 -4.296875 C 30.003906 -8.441406 23.460938 -14.25 18.796875 -21.71875 C 14.128906 -29.195312 11.796875 -37.878906 11.796875 -47.765625 L 11.796875 -136.328125 L 39.609375 -136.328125 L 39.609375 -50.046875 C 39.609375 -44.742188 40.78125 -40.03125 43.125 -35.90625 C 45.476562 -31.789062 48.789062 -28.554688 53.0625 -26.203125 C 57.332031 -23.859375 62.304688 -22.6875 67.984375 -22.6875 C 73.710938 -22.6875 78.695312 -23.859375 82.9375 -26.203125 C 87.175781 -28.554688 90.46875 -31.789062 92.8125 -35.90625 C 95.164062 -40.03125 96.34375 -44.742188 96.34375 -50.046875 L 96.34375 -136.328125 L 124.25 -136.328125 L 124.25 -47.765625 C 124.25 -37.878906 121.914062 -29.195312 117.25 -21.71875 C 112.582031 -14.25 106.023438 -8.441406 97.578125 -4.296875 C 89.128906 -0.148438 79.265625 1.921875 67.984375 1.921875 Z M 67.984375 1.921875 "/></g></g></g><g fill="#ff751f" fill-opacity="1"><g transform="translate(1168.576217, 1001.388302)"><g><path d="M 62.21875 2.015625 C 51.113281 2.015625 41.503906 0.304688 33.390625 -3.109375 C 25.273438 -6.523438 18.976562 -11.570312 14.5 -18.25 C 10.019531 -24.925781 7.6875 -33.113281 7.5 -42.8125 L 34.671875 -42.8125 C 34.921875 -38.175781 36.234375 -34.257812 38.609375 -31.0625 C 40.984375 -27.863281 44.179688 -25.453125 48.203125 -23.828125 C 52.234375 -22.210938 56.84375 -21.40625 62.03125 -21.40625 C 67.03125 -21.40625 71.40625 -22.132812 75.15625 -23.59375 C 78.90625 -25.0625 81.816406 -27.109375 83.890625 -29.734375 C 85.972656 -32.359375 87.015625 -35.378906 87.015625 -38.796875 C 87.015625 -41.898438 86.113281 -44.519531 84.3125 -46.65625 C 82.507812 -48.789062 79.851562 -50.617188 76.34375 -52.140625 C 72.84375 -53.671875 68.5 -55.015625 63.3125 -56.171875 L 48.484375 -59.828125 C 36.535156 -62.640625 27.28125 -67.078125 20.71875 -73.140625 C 14.164062 -79.210938 10.890625 -87.191406 10.890625 -97.078125 C 10.890625 -105.304688 13.097656 -112.5 17.515625 -118.65625 C 21.941406 -124.820312 28.007812 -129.628906 35.71875 -133.078125 C 43.4375 -136.523438 52.300781 -138.25 62.3125 -138.25 C 72.4375 -138.25 81.265625 -136.507812 88.796875 -133.03125 C 96.328125 -129.550781 102.195312 -124.703125 106.40625 -118.484375 C 110.613281 -112.265625 112.8125 -105.035156 113 -96.796875 L 86.09375 -96.796875 C 85.601562 -102.472656 83.238281 -106.894531 79 -110.0625 C 74.757812 -113.238281 69.132812 -114.828125 62.125 -114.828125 C 57.425781 -114.828125 53.367188 -114.140625 49.953125 -112.765625 C 46.535156 -111.390625 43.925781 -109.5 42.125 -107.09375 C 40.332031 -104.6875 39.4375 -101.925781 39.4375 -98.8125 C 39.4375 -95.582031 40.394531 -92.882812 42.3125 -90.71875 C 44.238281 -88.550781 46.894531 -86.75 50.28125 -85.3125 C 53.664062 -83.882812 57.460938 -82.679688 61.671875 -81.703125 L 74.109375 -78.6875 C 80.148438 -77.34375 85.6875 -75.554688 90.71875 -73.328125 C 95.75 -71.097656 100.09375 -68.394531 103.75 -65.21875 C 107.40625 -62.050781 110.207031 -58.300781 112.15625 -53.96875 C 114.113281 -49.644531 115.09375 -44.707031 115.09375 -39.15625 C 115.09375 -30.800781 112.988281 -23.523438 108.78125 -17.328125 C 104.570312 -11.140625 98.53125 -6.367188 90.65625 -3.015625 C 82.789062 0.335938 73.3125 2.015625 62.21875 2.015625 Z M 62.21875 2.015625 "/></g></g></g></svg>